Coordinates
version=1
nRows=24
nColumns=22
inDegrees=yes

Units are S.I. units (second, meters, Newtons, ...)
If the header above contains a line with 'inDegrees', this indicates whether rotational values are in degrees (yes) or radians (no).

endheader
time	pelvis_tilt	pelvis_list	pelvis_rotation	pelvis_tx	pelvis_ty	pelvis_tz	hip_flexion_r	hip_adduction_r	hip_rotation_r	knee_angle_r	ankle_angle_r	subtalar_angle_r	hip_flexion_l	hip_adduction_l	hip_rotation_l	knee_angle_l	ankle_angle_l	subtalar_angle_l	lumbar_extension	lumbar_bending	lumbar_rotation
      0.01000000	      0.46219202	      1.19446234	     -8.89851010	     -0.97452888	      0.90445553	     -0.44734820	     -7.37989112	     -1.13450360	     -6.71262426	     -1.60630797	     16.54618193	      0.85444264	     -1.47617342	     -1.19566339	    -11.91703319	    -12.65812418	     16.73118228	     -0.86679333	     -5.34383500	     -3.19757567	      3.11439476
      0.02000000	      0.47121003	      1.19487456	     -8.87853061	     -0.97452444	      0.90446414	     -0.44745447	     -7.39393251	     -1.13994083	     -6.72144287	     -1.60185710	     16.53880276	      0.85047213	     -1.47106079	     -1.19028789	    -11.89988195	    -12.67844349	     16.73548330	     -0.87781974	     -5.36030883	     -3.20459273	      3.13457927
      0.03000000	      0.47298563	      1.19289785	     -8.86191558	     -0.97448304	      0.90446058	     -0.44758097	     -7.39987804	     -1.14516593	     -6.72101447	     -1.60415755	     16.53863156	      0.84998694	     -1.47000803	     -1.18544929	    -11.89703980	    -12.68194052	     16.73687164	     -0.87992491	     -5.36033936	     -3.20045239	      3.14130449
      0.04000000	      0.48318085	      1.19387771	     -8.83168322	     -0.97447662	      0.90446576	     -0.44771804	     -7.41912724	     -1.15040411	     -6.74048960	     -1.59378732	     16.54207701	      0.84712241	     -1.45609585	     -1.17822359	    -11.85118527	    -12.71985070	     16.74783471	     -0.89239596	     -5.38075633	     -3.21185722	      3.17189545
      0.05000000	      0.48837966	      1.19418859	     -8.77516458	     -0.97442689	      0.90446050	     -0.44791327	     -7.44022118	     -1.15336176	     -6.80001168	     -1.58100542	     16.55068961	      0.83920473	     -1.44659101	     -1.16909003	    -11.77750895	    -12.73625612	     16.77921041	     -0.94095942	     -5.38951525	     -3.21164973	      3.13691267
      0.06000000	      0.48891454	      1.19140365	     -8.75742493	     -0.97437206	      0.90445184	     -0.44804630	     -7.44487782	     -1.15770136	     -6.79841455	     -1.58540351	     16.55091325	      0.83928191	     -1.44510481	     -1.16520791	    -11.77592734	    -12.73966659	     16.77925282	     -0.94248876	     -5.38686362	     -3.21012204	      3.14749476
      0.07000000	      0.48918896	      1.19307493	     -8.73580705	     -0.97434752	      0.90443734	     -0.44817646	     -7.44952641	     -1.16465742	     -6.81215716	     -1.58173157	     16.55735597	      0.83957540	     -1.42811905	     -1.15845041	    -11.74651359	    -12.76838136	     16.78406095	     -0.95005789	     -5.39164772	     -3.22153581	      3.18967296
      0.08000000	      0.48882266	      1.19086343	     -8.72091758	     -0.97427888	      0.90442378	     -0.44831576	     -7.45373674	     -1.17111476	     -6.81198670	     -1.58594414	     16.55867390	      0.83976502	     -1.42733295	     -1.15278404	    -11.74504649	    -12.77167327	     16.78566898	     -0.95152710	     -5.38543661	     -3.21774558	      3.19569116
      0.09000000	      0.46292934	      1.21359278	     -8.68369677	     -0.97422490	      0.90435594	     -0.44849930	     -7.42566555	     -1.19890542	     -6.86286514	     -1.59228505	     16.59866242	      0.84675749	     -1.37839859	     -1.12359986	    -11.68840669	    -12.79996791	     16.82150538	     -0.99133352	     -5.34996735	     -3.24097086	      3.19171045
      0.10000000	      0.46226093	      1.21024204	     -8.66914405	     -0.97415263	      0.90433918	     -0.44864050	     -7.42970258	     -1.20490968	     -6.86125450	     -1.59681149	     16.59918669	      0.84720716	     -1.37857778	     -1.11967127	    -11.68930043	    -12.80230145	     16.82124233	     -0.99277779	     -5.34415709	     -3.23780875	      3.19833893
      0.11000000	      0.45579981	      1.22237310	     -8.65378968	     -0.97408303	      0.90430267	     -0.44879945	     -7.43163246	     -1.22738793	     -6.87540939	     -1.58685401	     16.61374316	      0.85227855	     -1.36075930	     -1.09934877	    -11.67962101	    -12.82238661	     16.82695165	     -1.00517072	     -5.33127723	     -3.25269564	      3.22578923
      0.12000000	      0.45499154	      1.22104901	     -8.64424118	     -0.97399021	      0.90427849	     -0.44896012	     -7.43688401	     -1.23896900	     -6.87405469	     -1.59031234	     16.61569934	      0.85317102	     -1.36198464	     -1.09057737	    -11.68091028	    -12.82600562	     16.82813949	     -1.00697546	     -5.32193973	     -3.24689627	      3.22751898
      0.13000000	      0.44622454	      1.26033286	     -8.63589813	     -0.97389370	      0.90422483	     -0.44913920	     -7.44414666	     -1.29368248	     -6.88390073	     -1.55924865	     16.64792651	      0.86464904	     -1.33891555	     -1.03806250	    -11.68135235	    -12.84646038	     16.84625682	     -1.02654344	     -5.29839070	     -3.28892679	      3.22960264
      0.14000000	      0.43926488	      1.29138524	     -8.62940509	     -0.97378496	      0.90417808	     -0.44930954	     -7.44691033	     -1.34076576	     -6.88100518	     -1.54637165	     16.68037957	      0.88060289	     -1.32624453	     -0.99320898	    -11.67782073	    -12.85574078	     16.85196976	     -1.05709563	     -5.27593978	     -3.32307936	      3.22679319
      0.15000000	      0.43848704	      1.28933823	     -8.62804745	     -0.97367830	      0.90415579	     -0.44947467	     -7.45342709	     -1.35441397	     -6.88082802	     -1.54771359	     16.68259937	      0.88195318	     -1.32772198	     -0.98343062	    -11.67751896	    -12.86155797	     16.85213876	     -1.05961328	     -5.26732271	     -3.31646730	      3.22922807
      0.16000000	      0.42877849	      1.34946794	     -8.64412107	     -0.97357156	      0.90410329	     -0.44962929	     -7.44507584	     -1.43753608	     -6.87014824	     -1.53533404	     16.74769947	      0.94656886	     -1.31451510	     -0.90192933	    -11.67296635	    -12.85946009	     16.84021384	     -1.17487642	     -5.23959938	     -3.38737124	      3.25389814
      0.17000000	      0.42747077	      1.37200134	     -8.64700846	     -0.97345994	      0.90407175	     -0.44978653	     -7.45934758	     -1.47766563	     -6.86809771	     -1.51230156	     16.76423269	      0.95958740	     -1.30112564	     -0.86717134	    -11.68163481	    -12.88687854	     16.85471278	     -1.18502200	     -5.22907817	     -3.41556615	      3.25723801
      0.18000000	      0.42170883	      1.40351053	     -8.65894531	     -0.97335511	      0.90403603	     -0.44993867	     -7.45793575	     -1.53080716	     -6.84976113	     -1.50453415	     16.80261923	      0.98600322	     -1.28573333	     -0.82114743	    -11.69042717	    -12.90637875	     16.86396672	     -1.20036231	     -5.21498082	     -3.45399827	      3.26682097
      0.19000000	      0.40937325	      1.44097263	     -8.68558941	     -0.97327249	      0.90399358	     -0.45008063	     -7.43058175	     -1.59460807	     -6.82069208	     -1.52402101	     16.86371861	      1.03387729	     -1.26396509	     -0.76738569	    -11.70074367	    -12.92245817	     16.86544562	     -1.22328722	     -5.19806067	     -3.49896790	      3.28795345
      0.20000000	      0.36120929	      1.46831772	     -8.71696468	     -0.97319430	      0.90391644	     -0.45022893	     -7.32963561	     -1.64784653	     -6.80837078	     -1.61228737	     16.93479625	      1.20678403	     -1.20623888	     -0.72969259	    -11.72283516	    -12.93628939	     16.84603941	     -1.30251194	     -5.13775714	     -3.52558985	      3.32836090
      0.21000000	      0.33331226	      1.50531176	     -8.74140069	     -0.97309060	      0.90385682	     -0.45039457	     -7.27264534	     -1.71442059	     -6.78574535	     -1.66116622	     17.03580809	      1.30382539	     -1.16767646	     -0.67787179	    -11.74468804	    -12.95282364	     16.86457667	     -1.32398402	     -5.10116193	     -3.56778135	      3.34661251
      0.22000000	      0.28849741	      1.53733474	     -8.77335860	     -0.97304670	      0.90378812	     -0.45057628	     -7.16161620	     -1.77990680	     -6.76263165	     -1.76945661	     17.14949630	      1.45159884	     -1.09651756	     -0.63465604	    -11.77075336	    -12.99120509	     16.86432408	     -1.35690011	     -5.05957367	     -3.60165263	      3.37778974
      0.23000000	      0.22927886	      1.56145850	     -8.80259107	     -0.97300378	      0.90370655	     -0.45077648	     -7.02815464	     -1.83702609	     -6.75140196	     -1.89364726	     17.26431837	      1.64469032	     -1.00094862	     -0.60371518	    -11.79636873	    -13.04800683	     16.87605163	     -1.39634794	     -5.00449831	     -3.62444693	      3.40549131
      0.24000000	      0.16313794	      1.57953587	     -8.83081569	     -0.97295607	      0.90362364	     -0.45099481	     -6.88320734	     -1.88849371	     -6.74621221	     -2.02899553	     17.38080715	      1.86749859	     -0.89120973	     -0.58122058	    -11.82627018	    -13.11971152	     16.89038828	     -1.44039039	     -4.94665422	     -3.63952322	      3.43334545
